<?xml version="1.0" encoding="utf-8"?>
<!-- Generator: Adobe Illustrator 25.0.1, SVG Export Plug-In . SVG Version: 6.00 Build 0)  -->
<svg version="1.1" id="Layer_1" xmlns="http://www.w3.org/2000/svg" xmlns:xlink="http://www.w3.org/1999/xlink" x="0px" y="0px"
	 viewBox="0 0 130 130" style="enable-background:new 0 0 130 130;" xml:space="preserve">
<style type="text/css">
	.st0{fill:url(#SVGID_1_);}
	.st1{fill:#09325E;}
	.st2{fill:url(#SVGID_2_);}
	.st3{fill:#FCD561;}
</style>
<linearGradient id="SVGID_1_" gradientUnits="userSpaceOnUse" x1="106.3449" y1="30.3063" x2="-6.5201" y2="125.0113">
	<stop  offset="0" style="stop-color:#44C9D1"/>
	<stop  offset="1" style="stop-color:#0B3FA5"/>
</linearGradient>
<path class="st0" d="M130,65c0,9.3-2,18.2-5.5,26.2C114.4,114,91.6,130,65,130c-35.9,0-65-29.1-65-65c0-14.4,4.7-27.6,12.5-38.4
	C24.4,10.5,43.5,0,65,0C100.9,0,130,29.1,130,65z"/>
<desc>Created with Sketch.</desc>
<g>
	<path class="st1" d="M83.5,26.6l-11.3,3.1c-0.1,0-0.3,0.1-0.3,0.2l-8.1,9.7c-0.1,0.1-0.2,0.3-0.2,0.4c0,0.1,0,0.1,0,0.2
		c0.1,0.2,0.2,0.4,0.5,0.5l11.4,3.3c-0.1,2.4,0.5,4.6,1.7,6.3l-3.6,4.4c-0.2,0.3-0.2,0.7,0.1,0.9l3.4,3.3c0.1,0.1,0.3,0.2,0.5,0.2
		c0.2,0,0.4-0.1,0.5-0.2l4-4.4c1,0.4,3.5,1,7.4,0.3l4.1,11.2c0.1,0.2,0.3,0.4,0.5,0.4c0.2,0.1,0.5,0,0.6-0.2l9.1-8.7
		c0.1-0.1,0.2-0.2,0.2-0.4l2-11.4c2.5-2.2,5-4.7,7.5-7.4C127.9,22.4,130,9.9,130,3.8c0-2-0.2-3.1-0.3-3.1c-0.1-0.3-0.3-0.5-0.6-0.5
		c-0.7-0.1-17.7-2.7-39.7,19.3C89.5,19.5,86.6,22.5,83.5,26.6z M95.8,27.6c0-3.8,3.1-6.9,6.9-6.9s6.9,3.1,6.9,6.9s-3.1,6.9-6.9,6.9
		S95.8,31.5,95.8,27.6z"/>
</g>
<linearGradient id="SVGID_2_" gradientUnits="userSpaceOnUse" x1="74.6061" y1="54.9421" x2="8.2166" y2="126.6427">
	<stop  offset="2.501441e-07" style="stop-color:#44C9D1"/>
	<stop  offset="2.222360e-02" style="stop-color:#52CCD6"/>
	<stop  offset="8.133852e-02" style="stop-color:#71D2E1"/>
	<stop  offset="0.1482" style="stop-color:#8DD7EA"/>
	<stop  offset="0.2239" style="stop-color:#A3DBF2"/>
	<stop  offset="0.3122" style="stop-color:#B4DEF8"/>
	<stop  offset="0.4214" style="stop-color:#BFE0FC"/>
	<stop  offset="0.5746" style="stop-color:#C6E2FE"/>
	<stop  offset="1" style="stop-color:#C8E2FF"/>
</linearGradient>
<path class="st2" d="M124.5,91.2C114.4,114,91.6,130,65,130c-35.9,0-65-29.1-65-65c0-14.4,4.7-27.6,12.5-38.4
	c8.9,4.4,15.1,13.6,15.1,24.2c0,2.5-0.4,5-1,7.3c8.4,4.6,14.2,13.5,14.2,23.8c0,3-0.5,5.8-1.4,8.4c1.2-0.2,2.3-0.3,3.6-0.3
	c6.6,0,12.3,3.3,15.7,8.4c5-8.7,14.3-14.6,25.1-14.6c8.9,0,16.9,4.1,22.2,10.5c3.3-2.7,7.4-4.3,12-4.3
	C120.2,90,122.5,90.4,124.5,91.2z"/>
<path class="st3" d="M35.2,20.5l2.2,0.2l-2.2,0.2c-1.4,0.1-2.6,1.2-2.7,2.7l-0.2,2.2l-0.2-2.2c-0.1-1.4-1.2-2.6-2.7-2.7l-2.2-0.2
	l2.2-0.2c1.4-0.1,2.6-1.2,2.7-2.7l0.2-2.2l0.2,2.2C32.7,19.3,33.8,20.4,35.2,20.5z"/>
<path class="st3" d="M122.3,72.8l2.2,0.2l-2.2,0.2c-1.4,0.1-2.6,1.2-2.7,2.7l-0.2,2.2l-0.2-2.2c-0.1-1.4-1.2-2.6-2.7-2.7l-2.2-0.2
	l2.2-0.2c1.4-0.1,2.6-1.2,2.7-2.7l0.2-2.2l0.2,2.2C119.8,71.6,120.9,72.7,122.3,72.8z"/>
<path class="st3" d="M60.1,74.8l2.2,0.2l-2.2,0.2c-1.4,0.1-2.6,1.2-2.7,2.7L57.2,80l-0.2-2.2c-0.1-1.4-1.2-2.6-2.7-2.7l-2.2-0.2
	l2.2-0.2c1.4-0.1,2.6-1.2,2.7-2.7l0.2-2.2l0.2,2.2C57.5,73.5,58.6,74.7,60.1,74.8z"/>
<path class="st3" d="M74.4,10.5l2.2,0.2l-2.2,0.2c-1.4,0.1-2.6,1.2-2.7,2.7l-0.2,2.2l-0.2-2.2c-0.1-1.4-1.2-2.6-2.7-2.7l-2.2-0.2
	l2.2-0.2c1.4-0.1,2.6-1.2,2.7-2.7l0.2-2.2l0.2,2.2C71.8,9.2,72.9,10.4,74.4,10.5z"/>
</svg>
