<?xml version="1.0" encoding="utf-8"?>
<!-- Generator: Adobe Illustrator 25.0.1, SVG Export Plug-In . SVG Version: 6.00 Build 0)  -->
<svg version="1.1" id="Layer_1" xmlns="http://www.w3.org/2000/svg" xmlns:xlink="http://www.w3.org/1999/xlink" x="0px" y="0px"
	 viewBox="0 0 130 130" style="enable-background:new 0 0 130 130;" xml:space="preserve">
<style type="text/css">
	.st0{fill:url(#SVGID_1_);}
	.st1{fill:none;}
	.st2{fill:#A5CBFA;}
	.st3{fill:#0B3FA5;}
	.st4{clip-path:url(#SVGID_3_);}
	.st5{fill:#00162D;}
	.st6{fill:url(#SVGID_4_);}
	.st7{fill:#09325E;}
	.st8{fill:url(#SVGID_5_);}
	.st9{fill:url(#SVGID_6_);}
</style>
<linearGradient id="SVGID_1_" gradientUnits="userSpaceOnUse" x1="-72.381" y1="117.8375" x2="148.205" y2="32.9967">
	<stop  offset="0" style="stop-color:#0B3FA5"/>
	<stop  offset="0.1333" style="stop-color:#0F48A8"/>
	<stop  offset="0.3508" style="stop-color:#1960B0"/>
	<stop  offset="0.6253" style="stop-color:#2988BC"/>
	<stop  offset="0.9433" style="stop-color:#40BECE"/>
	<stop  offset="1" style="stop-color:#44C9D1"/>
</linearGradient>
<path class="st0" d="M130,65c0,9.3-2,18.2-5.5,26.2C114.4,114,91.6,130,65,130c-35.9,0-65-29.1-65-65c0-14.4,4.7-27.6,12.5-38.4
	C24.4,10.5,43.5,0,65,0C100.9,0,130,29.1,130,65z"/>
<desc>Created with Sketch.</desc>
<desc>Created with Sketch.</desc>
<desc>Created with Sketch.</desc>
<desc>Created with Sketch.</desc>
<desc>Created with Sketch.</desc>
<circle class="st1" cx="-598" cy="-155.2" r="97.7"/>
<desc>Created with Sketch.</desc>
<desc>Created with Sketch.</desc>
<g>
	<polygon class="st2" points="25.1,42.4 12.4,64.4 37.8,64.4 	"/>
	<path class="st3" d="M23.5,60.3c0-0.8,0.7-1.6,1.7-1.6c0.9,0,1.6,0.8,1.6,1.6c0,0.9-0.7,1.7-1.6,1.7C24.2,62,23.5,61.2,23.5,60.3z
		 M23.7,49.4h3l-0.6,8h-1.8L23.7,49.4z"/>
</g>
<g>
	<polygon class="st2" points="52.9,11.1 37.7,37.4 68.1,37.4 	"/>
	<path class="st3" d="M50.9,32.5c0-1,0.9-1.9,2-1.9c1.1,0,1.9,0.9,1.9,1.9c0,1.1-0.9,2-1.9,2C51.8,34.5,50.9,33.6,50.9,32.5z
		 M51.2,19.4h3.6L54,29h-2.1L51.2,19.4z"/>
</g>
<g>
	<defs>
		<path id="SVGID_2_" d="M130,65c0,9.3-2,18.2-5.5,26.2C114.4,114,91.6,130,65,130c-35.9,0-65-29.1-65-65c0-14.4,4.7-27.6,12.5-38.4
			C24.4,10.5,43.5,0,65,0C100.9,0,130,29.1,130,65z"/>
	</defs>
	<clipPath id="SVGID_3_">
		<use xlink:href="#SVGID_2_"  style="overflow:visible;"/>
	</clipPath>
	<g class="st4">
		<path class="st5" d="M139.3,106.9v2c0,0.6-0.2,1.2-1,1.6l-40.4,23.3c-0.4,0.2-1.2,0.2-1.8,0L36.3,99.4c-1.2-0.6-1.2-2.4,0-3.1
			L75,74.1c0.4-0.2,1-1,1-1.6l0,0c0-1.4,1.4-2.4,2.7-1.6l59.8,34.9C139.1,105.7,139.3,106.3,139.3,106.9z"/>
		<path class="st5" d="M76.7,33.1l59,34.3l0,0c3.1,2,3.3,2,3.3,6.1c0,1.8,0,29.4,0.2,35.3c0,0.4-0.4,0.6-1,0.4
			c-9-5.5-58-33.5-62-35.9c-0.2,0-0.2-0.2-0.2-0.4V33.7C75.9,33.3,76.3,32.9,76.7,33.1z"/>
		<linearGradient id="SVGID_4_" gradientUnits="userSpaceOnUse" x1="52.0189" y1="1.871" x2="124.1718" y2="95.4252">
			<stop  offset="0" style="stop-color:#C8E2FF"/>
			<stop  offset="0.2212" style="stop-color:#B0DDF6"/>
			<stop  offset="0.6869" style="stop-color:#71D2E1"/>
			<stop  offset="1" style="stop-color:#44C9D1"/>
		</linearGradient>
		<path class="st6" d="M77.7,36.9l56.9,32.4l0,0c3.1,1.8,3.3,2,3.3,5.9c0,1.8,0,27.8,0.2,33.5c0,0.4-0.4,0.6-1,0.4
			c-8.8-5.1-55.7-31.4-60-33.9c-0.2,0-0.2-0.2-0.2-0.4V37.7C76.9,36.9,77.5,36.5,77.7,36.9z"/>
		<polygon class="st7" points="77.3,119.2 58.9,108.8 66.5,104.7 84.4,114.9 		"/>
		<polygon class="st7" points="102.6,123.9 52,94.5 77.5,80 127.9,109 		"/>
		<linearGradient id="SVGID_5_" gradientUnits="userSpaceOnUse" x1="47.8036" y1="82.4099" x2="111.1302" y2="48.7456">
			<stop  offset="0" style="stop-color:#DCEEFF;stop-opacity:0.1"/>
			<stop  offset="0.483" style="stop-color:#C4DEFD;stop-opacity:0.5347"/>
			<stop  offset="1" style="stop-color:#A5CBFA"/>
		</linearGradient>
		<polygon class="st8" points="89.3,43.5 105.2,52.4 85.2,79.4 77.9,75.5 		"/>
		<linearGradient id="SVGID_6_" gradientUnits="userSpaceOnUse" x1="54.7259" y1="95.4316" x2="118.0525" y2="61.7672">
			<stop  offset="0" style="stop-color:#DCEEFF;stop-opacity:0.1"/>
			<stop  offset="0.483" style="stop-color:#C4DEFD;stop-opacity:0.5347"/>
			<stop  offset="1" style="stop-color:#A5CBFA"/>
		</linearGradient>
		<polygon class="st9" points="106.7,53.3 86.9,80.6 98.1,86.9 118.1,60.2 		"/>
	</g>
</g>
</svg>
