<?xml version="1.0" encoding="utf-8"?>
<!-- Generator: Adobe Illustrator 25.0.1, SVG Export Plug-In . SVG Version: 6.00 Build 0)  -->
<svg version="1.1" id="Layer_1" xmlns="http://www.w3.org/2000/svg" xmlns:xlink="http://www.w3.org/1999/xlink" x="0px" y="0px"
	 viewBox="0 0 130 130" style="enable-background:new 0 0 130 130;" xml:space="preserve">
<style type="text/css">
	.st0{fill:url(#SVGID_1_);}
	.st1{clip-path:url(#SVGID_3_);}
	.st2{fill:#AAD1FC;}
	.st3{fill:url(#SVGID_4_);}
	.st4{fill:#00162D;}
	.st5{fill:url(#SVGID_5_);}
	.st6{fill:url(#SVGID_6_);}
	.st7{fill:#0B3FA5;}
	.st8{fill:url(#SVGID_7_);}
	.st9{fill:url(#SVGID_8_);}
	.st10{fill:url(#SVGID_9_);}
	.st11{fill:url(#SVGID_10_);}
	.st12{fill:url(#SVGID_11_);}
	.st13{fill:url(#SVGID_12_);}
	.st14{fill:url(#SVGID_13_);}
	.st15{fill:url(#SVGID_14_);}
	.st16{fill:url(#SVGID_15_);}
	.st17{fill:url(#SVGID_16_);}
	.st18{fill:url(#SVGID_17_);}
	.st19{fill:url(#SVGID_18_);}
	.st20{fill:url(#SVGID_19_);}
	.st21{fill:url(#SVGID_20_);}
	.st22{fill:#44C9D1;}
	.st23{fill:url(#SVGID_21_);}
	.st24{fill:url(#SVGID_22_);}
	.st25{fill:url(#SVGID_23_);}
	.st26{fill:url(#SVGID_24_);}
	.st27{fill:url(#SVGID_25_);}
	.st28{fill:url(#SVGID_26_);}
	.st29{fill:url(#SVGID_27_);}
	.st30{fill:url(#SVGID_28_);}
	.st31{fill:url(#SVGID_29_);}
	.st32{fill:url(#SVGID_30_);}
	.st33{fill:url(#SVGID_31_);}
	.st34{fill:url(#SVGID_32_);}
	.st35{fill:url(#SVGID_33_);}
	.st36{fill:url(#SVGID_34_);}
</style>
<linearGradient id="SVGID_1_" gradientUnits="userSpaceOnUse" x1="-72.381" y1="117.8375" x2="148.205" y2="32.9967">
	<stop  offset="0" style="stop-color:#0B3FA5"/>
	<stop  offset="0.1333" style="stop-color:#0F48A8"/>
	<stop  offset="0.3508" style="stop-color:#1960B0"/>
	<stop  offset="0.6253" style="stop-color:#2988BC"/>
	<stop  offset="0.9433" style="stop-color:#40BECE"/>
	<stop  offset="1" style="stop-color:#44C9D1"/>
</linearGradient>
<path class="st0" d="M130,65c0,9.3-2,18.2-5.5,26.2C114.4,114,91.6,130,65,130c-35.9,0-65-29.1-65-65c0-14.4,4.7-27.6,12.5-38.4
	C24.4,10.5,43.5,0,65,0C100.9,0,130,29.1,130,65z"/>
<desc>Created with Sketch.</desc>
<desc>Created with Sketch.</desc>
<desc>Created with Sketch.</desc>
<desc>Created with Sketch.</desc>
<desc>Created with Sketch.</desc>
<g>
	<defs>
		<path id="SVGID_2_" d="M130,65c0,9.3-2,18.2-5.5,26.2C114.4,114,91.6,130,65,130c-35.9,0-65-29.1-65-65c0-14.4,4.7-27.6,12.5-38.4
			C24.4,10.5,43.5,0,65,0C100.9,0,130,29.1,130,65z"/>
	</defs>
	<clipPath id="SVGID_3_">
		<use xlink:href="#SVGID_2_"  style="overflow:visible;"/>
	</clipPath>
	<g class="st1">
		<g>
			<path class="st2" d="M83.2,76.4v0.3c1-4.5,7.1-7.6,11.9-4.8c0.8,0.4,1.5,1,2.2,1.6c2.1-1.7,5.3-1.7,8.9,0.3
				c0.9,0.5,1.9,1.2,2.7,1.9c0.5-8.5,7-11.8,14.8-7.3c8.2,4.7,14.9,16.2,14.9,25.6c0,0.1,0,0.3,0,0.4c0.9,0.2,1.8,0.6,2.7,1.1
				c5.6,3.2,10.1,11.1,10.1,17.5c0,0.2,0,0.3,0,0.5c2.9,2.5,5.1,6.8,5.1,10.4v0c0,4.2-5.7,10.8-9.4,8.6L78.8,93.3
				c-3.7-2.1-1.5-10.9-1.5-15.1L73.9,81C73.9,76.7,79.5,74.3,83.2,76.4z"/>
			<linearGradient id="SVGID_4_" gradientUnits="userSpaceOnUse" x1="136.0769" y1="170.2928" x2="98.7775" y2="66.6495">
				<stop  offset="1.274966e-07" style="stop-color:#EFF6FE"/>
				<stop  offset="0.426" style="stop-color:#EDF6FE"/>
				<stop  offset="0.5795" style="stop-color:#E6F7FC"/>
				<stop  offset="0.6889" style="stop-color:#DBF7FA"/>
				<stop  offset="0.7773" style="stop-color:#CAF9F7"/>
				<stop  offset="0.853" style="stop-color:#B4FAF3"/>
				<stop  offset="0.9201" style="stop-color:#98FCED"/>
				<stop  offset="0.9793" style="stop-color:#79FEE7"/>
				<stop  offset="1" style="stop-color:#6CFFE5"/>
			</linearGradient>
			<path class="st3" d="M79.7,78.6l1.3,0.8c1-4.5,5.1-6,9.9-3.3c0.8,0.4,1.5,1,2.2,1.6c2.1-1.7,5.3-1.7,8.9,0.3
				c0.9,0.5,1.9,1.2,2.7,1.9c0.5-8.5,7-11.8,14.8-7.3c8.2,4.7,14.9,16.2,14.9,25.6c0,0.1,0,0.3,0,0.4c0.9,0.2,1.8,0.6,2.7,1.1
				c5.6,3.2,10.1,11.1,10.1,17.5c0,0.2,0,0.3,0,0.5c2.9,2.5,5.1,6.8,5.1,10.4v0c0,4.2-3,5.9-6.7,3.8L79.7,94
				C76,91.8,73,86.7,73,82.4v0C73,78.2,76,76.5,79.7,78.6z"/>
		</g>
		<g>
			<g>
				<g>
					<polygon class="st4" points="45.5,122.5 18.1,106.6 18.1,77 45.5,92.9 					"/>
					<polygon class="st4" points="73,106.6 45.5,122.5 45.5,92.9 73,77 					"/>
					<linearGradient id="SVGID_5_" gradientUnits="userSpaceOnUse" x1="18.0562" y1="76.978" x2="73.0331" y2="76.978">
						<stop  offset="2.605668e-07" style="stop-color:#06213D"/>
						<stop  offset="1" style="stop-color:#09325E"/>
					</linearGradient>
					<polygon class="st5" points="45.5,92.9 18.1,77 45.5,61.1 73,76.9 					"/>
					<g>
						<linearGradient id="SVGID_6_" gradientUnits="userSpaceOnUse" x1="18.0562" y1="89.5076" x2="45.5446" y2="89.5076">
							<stop  offset="2.605668e-07" style="stop-color:#06213D"/>
							<stop  offset="1" style="stop-color:#09325E"/>
						</linearGradient>
						<polygon class="st6" points="45.5,102 18.1,86.1 18.1,77 45.5,92.9 						"/>
						<g>
							
								<ellipse transform="matrix(0.8735 -0.4869 0.4869 0.8735 -37.9536 21.005)" class="st7" cx="21.4" cy="83.5" rx="0.9" ry="1.6"/>
							
								<ellipse transform="matrix(0.8735 -0.4869 0.4869 0.8735 -38.3599 22.4768)" class="st7" cx="24.1" cy="85" rx="0.9" ry="1.6"/>
						</g>
						<linearGradient id="SVGID_7_" gradientUnits="userSpaceOnUse" x1="18.0562" y1="99.7444" x2="45.5446" y2="99.7444">
							<stop  offset="2.605668e-07" style="stop-color:#06213D"/>
							<stop  offset="1" style="stop-color:#09325E"/>
						</linearGradient>
						<polygon class="st8" points="45.5,112.2 18.1,96.4 18.1,87.3 45.5,103.1 						"/>
						<g>
							
								<ellipse transform="matrix(0.8735 -0.4869 0.4869 0.8735 -42.9377 22.3002)" class="st7" cx="21.4" cy="93.8" rx="0.9" ry="1.6"/>
							
								<ellipse transform="matrix(0.8735 -0.4869 0.4869 0.8735 -43.344 23.7721)" class="st7" cx="24.1" cy="95.3" rx="0.9" ry="1.6"/>
						</g>
						<linearGradient id="SVGID_8_" gradientUnits="userSpaceOnUse" x1="18.0562" y1="109.9812" x2="45.5446" y2="109.9812">
							<stop  offset="2.605668e-07" style="stop-color:#06213D"/>
							<stop  offset="1" style="stop-color:#09325E"/>
						</linearGradient>
						<polygon class="st9" points="45.5,122.5 18.1,106.6 18.1,97.5 45.5,113.4 						"/>
						<g>
							
								<ellipse transform="matrix(0.8735 -0.4869 0.4869 0.8735 -47.9217 23.5955)" class="st7" cx="21.4" cy="104" rx="0.9" ry="1.6"/>
							
								<ellipse transform="matrix(0.8735 -0.4869 0.4869 0.8735 -48.3281 25.0674)" class="st7" cx="24.1" cy="105.5" rx="0.9" ry="1.6"/>
						</g>
					</g>
					<g>
						<linearGradient id="SVGID_9_" gradientUnits="userSpaceOnUse" x1="45.5446" y1="89.5076" x2="73.0331" y2="89.5076">
							<stop  offset="2.605668e-07" style="stop-color:#06213D"/>
							<stop  offset="1" style="stop-color:#09325E"/>
						</linearGradient>
						<polygon class="st10" points="73,86.1 45.5,102 45.5,92.9 73,77 						"/>
						<linearGradient id="SVGID_10_" gradientUnits="userSpaceOnUse" x1="45.5446" y1="99.7444" x2="73.0331" y2="99.7444">
							<stop  offset="2.605668e-07" style="stop-color:#06213D"/>
							<stop  offset="1" style="stop-color:#09325E"/>
						</linearGradient>
						<polygon class="st11" points="73,96.4 45.5,112.2 45.5,103.1 73,87.3 						"/>
						<linearGradient id="SVGID_11_" gradientUnits="userSpaceOnUse" x1="45.5446" y1="109.9812" x2="73.0331" y2="109.9812">
							<stop  offset="2.605668e-07" style="stop-color:#06213D"/>
							<stop  offset="1" style="stop-color:#09325E"/>
						</linearGradient>
						<polygon class="st12" points="73,106.6 45.5,122.5 45.5,113.4 73,97.5 						"/>
					</g>
				</g>
				<g>
					<polygon class="st4" points="45.5,90.2 18.1,74.3 18.1,44.8 45.5,60.6 					"/>
					<polygon class="st4" points="73,74.3 45.5,90.2 45.5,60.6 73,44.8 					"/>
					<linearGradient id="SVGID_12_" gradientUnits="userSpaceOnUse" x1="18.0562" y1="44.7205" x2="73.0331" y2="44.7205">
						<stop  offset="2.605668e-07" style="stop-color:#06213D"/>
						<stop  offset="1" style="stop-color:#09325E"/>
					</linearGradient>
					<polygon class="st13" points="45.5,60.6 18.1,44.8 45.5,28.8 73,44.7 					"/>
					<g>
						<linearGradient id="SVGID_13_" gradientUnits="userSpaceOnUse" x1="18.0562" y1="57.2501" x2="45.5446" y2="57.2501">
							<stop  offset="2.605668e-07" style="stop-color:#06213D"/>
							<stop  offset="1" style="stop-color:#09325E"/>
						</linearGradient>
						<polygon class="st14" points="45.5,69.7 18.1,53.9 18.1,44.8 45.5,60.6 						"/>
						<g>
							
								<ellipse transform="matrix(0.8735 -0.4869 0.4869 0.8735 -22.2481 16.9234)" class="st7" cx="21.4" cy="51.3" rx="0.9" ry="1.6"/>
							
								<ellipse transform="matrix(0.8735 -0.4869 0.4869 0.8735 -22.6544 18.3953)" class="st7" cx="24.1" cy="52.8" rx="0.9" ry="1.6"/>
						</g>
						<linearGradient id="SVGID_14_" gradientUnits="userSpaceOnUse" x1="18.0562" y1="67.4869" x2="45.5446" y2="67.4869">
							<stop  offset="2.605668e-07" style="stop-color:#06213D"/>
							<stop  offset="1" style="stop-color:#09325E"/>
						</linearGradient>
						<polygon class="st15" points="45.5,80 18.1,64.1 18.1,55 45.5,70.9 						"/>
						<g>
							
								<ellipse transform="matrix(0.8735 -0.4869 0.4869 0.8735 -27.2322 18.2187)" class="st7" cx="21.4" cy="61.5" rx="0.9" ry="1.6"/>
							
								<ellipse transform="matrix(0.8735 -0.4869 0.4869 0.8735 -27.6385 19.6906)" class="st7" cx="24.1" cy="63" rx="0.9" ry="1.6"/>
						</g>
						<linearGradient id="SVGID_15_" gradientUnits="userSpaceOnUse" x1="18.0562" y1="77.7237" x2="45.5446" y2="77.7237">
							<stop  offset="2.605668e-07" style="stop-color:#06213D"/>
							<stop  offset="1" style="stop-color:#09325E"/>
						</linearGradient>
						<polygon class="st16" points="45.5,90.2 18.1,74.3 18.1,65.2 45.5,81.1 						"/>
						<g>
							
								<ellipse transform="matrix(0.8735 -0.4869 0.4869 0.8735 -32.2163 19.5139)" class="st7" cx="21.4" cy="71.7" rx="0.9" ry="1.6"/>
							
								<ellipse transform="matrix(0.8735 -0.4869 0.4869 0.8735 -32.6226 20.9858)" class="st7" cx="24.1" cy="73.3" rx="0.9" ry="1.6"/>
						</g>
					</g>
					<g>
						<linearGradient id="SVGID_16_" gradientUnits="userSpaceOnUse" x1="45.5446" y1="57.2501" x2="73.0331" y2="57.2501">
							<stop  offset="2.605668e-07" style="stop-color:#06213D"/>
							<stop  offset="1" style="stop-color:#09325E"/>
						</linearGradient>
						<polygon class="st17" points="73,53.9 45.5,69.7 45.5,60.6 73,44.8 						"/>
						<linearGradient id="SVGID_17_" gradientUnits="userSpaceOnUse" x1="45.5446" y1="67.4869" x2="73.0331" y2="67.4869">
							<stop  offset="2.605668e-07" style="stop-color:#06213D"/>
							<stop  offset="1" style="stop-color:#09325E"/>
						</linearGradient>
						<polygon class="st18" points="73,64.1 45.5,80 45.5,70.9 73,55 						"/>
						<linearGradient id="SVGID_18_" gradientUnits="userSpaceOnUse" x1="45.5446" y1="77.7237" x2="73.0331" y2="77.7237">
							<stop  offset="2.605668e-07" style="stop-color:#06213D"/>
							<stop  offset="1" style="stop-color:#09325E"/>
						</linearGradient>
						<polygon class="st19" points="73,74.3 45.5,90.2 45.5,81.1 73,65.2 						"/>
					</g>
				</g>
			</g>
			<g>
				<g>
					<polygon class="st4" points="75.9,134 48.4,118.2 48.4,88.6 75.9,104.4 					"/>
					<polygon class="st4" points="103.3,118.2 75.9,134 75.9,104.4 103.3,88.6 					"/>
					<linearGradient id="SVGID_19_" gradientUnits="userSpaceOnUse" x1="48.3715" y1="88.537" x2="103.3484" y2="88.537">
						<stop  offset="0" style="stop-color:#00162D"/>
						<stop  offset="1" style="stop-color:#09325E"/>
					</linearGradient>
					<polygon class="st20" points="75.9,104.4 48.4,88.6 75.9,72.6 103.3,88.5 					"/>
					<g>
						<linearGradient id="SVGID_20_" gradientUnits="userSpaceOnUse" x1="48.3715" y1="101.0667" x2="75.8599" y2="101.0667">
							<stop  offset="0" style="stop-color:#00162D"/>
							<stop  offset="1" style="stop-color:#09325E"/>
						</linearGradient>
						<polygon class="st21" points="75.9,113.6 48.4,97.7 48.4,88.6 75.9,104.4 						"/>
						<g>
							
								<ellipse transform="matrix(0.8735 -0.4869 0.4869 0.8735 -39.7456 37.2274)" class="st22" cx="51.8" cy="95.1" rx="0.9" ry="1.6"/>
							
								<ellipse transform="matrix(0.8735 -0.4869 0.4869 0.8735 -40.152 38.6993)" class="st22" cx="54.4" cy="96.6" rx="0.9" ry="1.6"/>
						</g>
						<linearGradient id="SVGID_21_" gradientUnits="userSpaceOnUse" x1="48.3715" y1="111.3035" x2="75.8599" y2="111.3035">
							<stop  offset="0" style="stop-color:#00162D"/>
							<stop  offset="1" style="stop-color:#09325E"/>
						</linearGradient>
						<polygon class="st23" points="75.9,123.8 48.4,107.9 48.4,98.8 75.9,114.7 						"/>
						<g>
							
								<ellipse transform="matrix(0.8735 -0.4869 0.4869 0.8735 -44.7297 38.5227)" class="st22" cx="51.8" cy="105.3" rx="0.9" ry="1.6"/>
							
								<ellipse transform="matrix(0.8735 -0.4869 0.4869 0.8735 -45.136 39.9946)" class="st22" cx="54.4" cy="106.8" rx="0.9" ry="1.6"/>
						</g>
						<linearGradient id="SVGID_22_" gradientUnits="userSpaceOnUse" x1="48.3715" y1="121.5403" x2="75.8599" y2="121.5403">
							<stop  offset="0" style="stop-color:#00162D"/>
							<stop  offset="1" style="stop-color:#09325E"/>
						</linearGradient>
						<polygon class="st24" points="75.9,134 48.4,118.2 48.4,109.1 75.9,124.9 						"/>
						<g>
							
								<ellipse transform="matrix(0.8735 -0.4869 0.4869 0.8735 -49.7138 39.8179)" class="st22" cx="51.8" cy="115.6" rx="0.9" ry="1.6"/>
							
								<ellipse transform="matrix(0.8735 -0.4869 0.4869 0.8735 -50.1201 41.2898)" class="st22" cx="54.4" cy="117.1" rx="0.9" ry="1.6"/>
						</g>
					</g>
					<g>
						<linearGradient id="SVGID_23_" gradientUnits="userSpaceOnUse" x1="75.8599" y1="101.0667" x2="103.3484" y2="101.0667">
							<stop  offset="0" style="stop-color:#00162D"/>
							<stop  offset="1" style="stop-color:#09325E"/>
						</linearGradient>
						<polygon class="st25" points="103.3,97.7 75.9,113.6 75.9,104.4 103.3,88.6 						"/>
						<linearGradient id="SVGID_24_" gradientUnits="userSpaceOnUse" x1="75.8599" y1="111.3035" x2="103.3484" y2="111.3035">
							<stop  offset="0" style="stop-color:#00162D"/>
							<stop  offset="1" style="stop-color:#09325E"/>
						</linearGradient>
						<polygon class="st26" points="103.3,107.9 75.9,123.8 75.9,114.7 103.3,98.8 						"/>
						<linearGradient id="SVGID_25_" gradientUnits="userSpaceOnUse" x1="75.8599" y1="121.5403" x2="103.3484" y2="121.5403">
							<stop  offset="0" style="stop-color:#00162D"/>
							<stop  offset="1" style="stop-color:#09325E"/>
						</linearGradient>
						<polygon class="st27" points="103.3,118.2 75.9,134 75.9,124.9 103.3,109.1 						"/>
					</g>
				</g>
				<g>
					<polygon class="st4" points="75.9,101.9 48.4,86 48.4,56.4 75.9,72.3 					"/>
					<polygon class="st4" points="103.3,86 75.9,101.9 75.9,72.3 103.3,56.4 					"/>
					<linearGradient id="SVGID_26_" gradientUnits="userSpaceOnUse" x1="48.3715" y1="56.3947" x2="103.3484" y2="56.3947">
						<stop  offset="0" style="stop-color:#00162D"/>
						<stop  offset="1" style="stop-color:#09325E"/>
					</linearGradient>
					<polygon class="st28" points="75.9,72.3 48.4,56.4 75.9,40.5 103.3,56.4 					"/>
					<g>
						<linearGradient id="SVGID_27_" gradientUnits="userSpaceOnUse" x1="48.3715" y1="68.9244" x2="75.8599" y2="68.9244">
							<stop  offset="0" style="stop-color:#00162D"/>
							<stop  offset="1" style="stop-color:#09325E"/>
						</linearGradient>
						<polygon class="st29" points="75.9,81.4 48.4,65.5 48.4,56.4 75.9,72.3 						"/>
						<g>
							
								<ellipse transform="matrix(0.8735 -0.4869 0.4869 0.8735 -24.0962 33.1604)" class="st22" cx="51.8" cy="62.9" rx="0.9" ry="1.6"/>
							
								<ellipse transform="matrix(0.8735 -0.4869 0.4869 0.8735 -24.5026 34.6323)" class="st22" cx="54.4" cy="64.5" rx="0.9" ry="1.6"/>
						</g>
						<linearGradient id="SVGID_28_" gradientUnits="userSpaceOnUse" x1="48.3715" y1="79.1612" x2="75.8599" y2="79.1612">
							<stop  offset="0" style="stop-color:#00162D"/>
							<stop  offset="1" style="stop-color:#09325E"/>
						</linearGradient>
						<polygon class="st30" points="75.9,91.6 48.4,75.8 48.4,66.7 75.9,82.5 						"/>
						<g>
							
								<ellipse transform="matrix(0.8735 -0.4869 0.4869 0.8735 -29.0803 34.4557)" class="st22" cx="51.8" cy="73.2" rx="0.9" ry="1.6"/>
							
								<ellipse transform="matrix(0.8735 -0.4869 0.4869 0.8735 -29.4866 35.9276)" class="st22" cx="54.4" cy="74.7" rx="0.9" ry="1.6"/>
						</g>
						<linearGradient id="SVGID_29_" gradientUnits="userSpaceOnUse" x1="48.3715" y1="89.398" x2="75.8599" y2="89.398">
							<stop  offset="0" style="stop-color:#00162D"/>
							<stop  offset="1" style="stop-color:#09325E"/>
						</linearGradient>
						<polygon class="st31" points="75.9,101.9 48.4,86 48.4,76.9 75.9,92.8 						"/>
						<g>
							
								<ellipse transform="matrix(0.8735 -0.4869 0.4869 0.8735 -34.0644 35.751)" class="st22" cx="51.8" cy="83.4" rx="0.9" ry="1.6"/>
							
								<ellipse transform="matrix(0.8735 -0.4869 0.4869 0.8735 -34.4707 37.2228)" class="st22" cx="54.4" cy="84.9" rx="0.9" ry="1.6"/>
						</g>
					</g>
					<g>
						<linearGradient id="SVGID_30_" gradientUnits="userSpaceOnUse" x1="75.8599" y1="68.9244" x2="103.3484" y2="68.9244">
							<stop  offset="0" style="stop-color:#00162D"/>
							<stop  offset="1" style="stop-color:#09325E"/>
						</linearGradient>
						<polygon class="st32" points="103.3,65.5 75.9,81.4 75.9,72.3 103.3,56.4 						"/>
						<linearGradient id="SVGID_31_" gradientUnits="userSpaceOnUse" x1="75.8599" y1="79.1612" x2="103.3484" y2="79.1612">
							<stop  offset="0" style="stop-color:#00162D"/>
							<stop  offset="1" style="stop-color:#09325E"/>
						</linearGradient>
						<polygon class="st33" points="103.3,75.8 75.9,91.6 75.9,82.5 103.3,66.7 						"/>
						<linearGradient id="SVGID_32_" gradientUnits="userSpaceOnUse" x1="75.8599" y1="89.398" x2="103.3484" y2="89.398">
							<stop  offset="0" style="stop-color:#00162D"/>
							<stop  offset="1" style="stop-color:#09325E"/>
						</linearGradient>
						<polygon class="st34" points="103.3,86 75.9,101.9 75.9,92.8 103.3,76.9 						"/>
					</g>
				</g>
			</g>
		</g>
		<g>
			<path class="st2" d="M6.6,90.2v0.3c1-4.5,7.1-7.6,11.9-4.8c0.8,0.4,1.5,1,2.2,1.6c2.1-1.7,5.3-1.7,8.9,0.3
				c0.9,0.5,1.9,1.2,2.7,1.9c0.5-8.5,7-11.8,14.8-7.3C55.4,87,62,98.5,62,107.9c0,0.1,0,0.3,0,0.4c0.9,0.2,1.8,0.6,2.7,1.1
				c5.6,3.2,10.1,11.1,10.1,17.5c0,0.2,0,0.3,0,0.5c2.9,2.5,5.1,6.8,5.1,10.4v0c0,4.2-5.7,10.8-9.4,8.6L2.1,107.1
				C-1.6,105,0.6,96.3,0.6,92l-3.4,2.7C-2.8,90.5,2.9,88.1,6.6,90.2z"/>
			<linearGradient id="SVGID_33_" gradientUnits="userSpaceOnUse" x1="33.8282" y1="186.1755" x2="37.497" y2="76.7233">
				<stop  offset="1.274966e-07" style="stop-color:#EFF6FE"/>
				<stop  offset="0.426" style="stop-color:#EDF6FE"/>
				<stop  offset="0.5795" style="stop-color:#E6F7FC"/>
				<stop  offset="0.6889" style="stop-color:#DBF7FA"/>
				<stop  offset="0.7773" style="stop-color:#CAF9F7"/>
				<stop  offset="0.853" style="stop-color:#B4FAF3"/>
				<stop  offset="0.9201" style="stop-color:#98FCED"/>
				<stop  offset="0.9793" style="stop-color:#79FEE7"/>
				<stop  offset="1" style="stop-color:#6CFFE5"/>
			</linearGradient>
			<path class="st35" d="M3.1,92.4l1.3,0.8c1-4.5,5.1-6,9.9-3.3c0.8,0.4,1.5,1,2.2,1.6c2.1-1.7,5.3-1.7,8.9,0.3
				c0.9,0.5,1.9,1.2,2.7,1.9c0.5-8.5,7-11.8,14.8-7.3c8.2,4.7,14.9,16.2,14.9,25.6c0,0.1,0,0.3,0,0.4c0.9,0.2,1.8,0.6,2.7,1.1
				c5.6,3.2,10.1,11.1,10.1,17.5c0,0.2,0,0.3,0,0.5c2.9,2.5,5.1,6.8,5.1,10.4v0c0,4.2-3,5.9-6.7,3.8L3.1,107.8
				c-3.7-2.1-6.7-7.3-6.7-11.5v0C-3.6,92-0.6,90.3,3.1,92.4z"/>
		</g>
		<g>
			<path class="st2" d="M58.6,100.7v0.3c1-4.5,7.1-7.6,11.9-4.8c0.8,0.4,1.5,1,2.2,1.6C74.8,96,78,96,81.6,98
				c0.9,0.5,1.9,1.2,2.7,1.9c0.5-8.5,7-11.8,14.8-7.3c8.2,4.7,14.9,16.2,14.9,25.6c0,0.1,0,0.3,0,0.4c0.9,0.2,1.8,0.6,2.7,1.1
				c5.6,3.2,10.1,11.1,10.1,17.5c0,0.2,0,0.3,0,0.5c2.9,2.5,5.1,6.8,5.1,10.4v0c0,4.2-5.7,10.8-9.4,8.6l-68.4-39.3
				c-3.7-2.1-1.5-10.9-1.5-15.1l-3.4,2.7C49.2,100.9,54.9,98.5,58.6,100.7z"/>
			<linearGradient id="SVGID_34_" gradientUnits="userSpaceOnUse" x1="111.4153" y1="194.518" x2="74.116" y2="90.8747">
				<stop  offset="1.274966e-07" style="stop-color:#EFF6FE"/>
				<stop  offset="0.426" style="stop-color:#EDF6FE"/>
				<stop  offset="0.5795" style="stop-color:#E6F7FC"/>
				<stop  offset="0.6889" style="stop-color:#DBF7FA"/>
				<stop  offset="0.7773" style="stop-color:#CAF9F7"/>
				<stop  offset="0.853" style="stop-color:#B4FAF3"/>
				<stop  offset="0.9201" style="stop-color:#98FCED"/>
				<stop  offset="0.9793" style="stop-color:#79FEE7"/>
				<stop  offset="1" style="stop-color:#6CFFE5"/>
			</linearGradient>
			<path class="st36" d="M55.1,102.8l1.3,0.8c1-4.5,5.1-6,9.9-3.3c0.8,0.4,1.5,1,2.2,1.6c2.1-1.7,5.3-1.7,8.9,0.3
				c0.9,0.5,1.9,1.2,2.7,1.9c0.5-8.5,7-11.8,14.8-7.3c8.2,4.7,14.9,16.2,14.9,25.6c0,0.1,0,0.3,0,0.4c0.9,0.2,1.8,0.6,2.7,1.1
				c5.6,3.2,10.1,11.1,10.1,17.5c0,0.2,0,0.3,0,0.5c2.9,2.5,5.1,6.8,5.1,10.4v0c0,4.2-3,5.9-6.7,3.8l-65.9-38.1
				c-3.7-2.1-6.7-7.3-6.7-11.5v0C48.4,102.4,51.4,100.7,55.1,102.8z"/>
		</g>
	</g>
</g>
</svg>
