<?xml version="1.0" encoding="utf-8"?>
<!-- Generator: Adobe Illustrator 25.0.1, SVG Export Plug-In . SVG Version: 6.00 Build 0)  -->
<svg version="1.1" id="Layer_1" xmlns="http://www.w3.org/2000/svg" xmlns:xlink="http://www.w3.org/1999/xlink" x="0px" y="0px"
	 viewBox="0 0 130 130" style="enable-background:new 0 0 130 130;" xml:space="preserve">
<style type="text/css">
	.st0{fill:url(#SVGID_1_);}
	.st1{clip-path:url(#SVGID_3_);}
	.st2{fill:#00162D;}
	.st3{fill:url(#SVGID_4_);}
	.st4{fill:#09325E;}
	.st5{fill:url(#SVGID_5_);}
	.st6{fill:url(#SVGID_6_);}
	.st7{fill-rule:evenodd;clip-rule:evenodd;fill:#DCEEFF;}
	.st8{fill-rule:evenodd;clip-rule:evenodd;fill:url(#Combined-Shape-Copy-6_1_);}
	.st9{fill-rule:evenodd;clip-rule:evenodd;fill:url(#Combined-Shape-Copy-7_1_);}
</style>
<linearGradient id="SVGID_1_" gradientUnits="userSpaceOnUse" x1="-72.381" y1="117.8375" x2="148.205" y2="32.9967">
	<stop  offset="0" style="stop-color:#0B3FA5"/>
	<stop  offset="0.1333" style="stop-color:#0F48A8"/>
	<stop  offset="0.3508" style="stop-color:#1960B0"/>
	<stop  offset="0.6253" style="stop-color:#2988BC"/>
	<stop  offset="0.9433" style="stop-color:#40BECE"/>
	<stop  offset="1" style="stop-color:#44C9D1"/>
</linearGradient>
<path class="st0" d="M130,65c0,9.3-2,18.2-5.5,26.2C114.4,114,91.6,130,65,130c-35.9,0-65-29.1-65-65c0-14.4,4.7-27.6,12.5-38.4
	C24.4,10.5,43.5,0,65,0C100.9,0,130,29.1,130,65z"/>
<desc>Created with Sketch.</desc>
<desc>Created with Sketch.</desc>
<desc>Created with Sketch.</desc>
<g>
	<defs>
		<path id="SVGID_2_" d="M130,65c0,9.3-2,18.2-5.5,26.2C114.4,114,91.6,130,65,130c-35.9,0-65-29.1-65-65c0-14.4,4.7-27.6,12.5-38.4
			C24.4,10.5,43.5,0,65,0C100.9,0,130,29.1,130,65z"/>
	</defs>
	<clipPath id="SVGID_3_">
		<use xlink:href="#SVGID_2_"  style="overflow:visible;"/>
	</clipPath>
	<g class="st1">
		<g>
			<g>
				<path class="st2" d="M99.9,117.5H-41.3l20.6-26.9c0.5-0.7,2.7-1.2,4.9-1.2h90.2c2.2,0,4.4,0.5,4.9,1.2L99.9,117.5z"/>
				<path class="st2" d="M95.4,122.2H-36.8c-2.5,0-4.5-2-4.5-4.5v-0.2H99.9v0.2C99.9,120.2,97.9,122.2,95.4,122.2z"/>
			</g>
			<path class="st2" d="M74.4,89.4h-90.2c-2.2,0-4-1.8-4-4V27.8c0-2.2,1.8-4,4-4h90.2c2.2,0,4,1.8,4,4v57.7
				C78.4,87.7,76.6,89.4,74.4,89.4z"/>
			<linearGradient id="SVGID_4_" gradientUnits="userSpaceOnUse" x1="0.7392" y1="71.2147" x2="120.8921" y2="9.7624">
				<stop  offset="2.501441e-07" style="stop-color:#44C9D1"/>
				<stop  offset="2.222360e-02" style="stop-color:#52CCD6"/>
				<stop  offset="8.133852e-02" style="stop-color:#71D2E1"/>
				<stop  offset="0.1482" style="stop-color:#8DD7EA"/>
				<stop  offset="0.2239" style="stop-color:#A3DBF2"/>
				<stop  offset="0.3122" style="stop-color:#B4DEF8"/>
				<stop  offset="0.4214" style="stop-color:#BFE0FC"/>
				<stop  offset="0.5746" style="stop-color:#C6E2FE"/>
				<stop  offset="1" style="stop-color:#C8E2FF"/>
			</linearGradient>
			<rect x="-15" y="28.4" class="st3" width="88.6" height="56.5"/>
			<polygon class="st4" points="80.9,105 -22.3,105 -13.8,91.8 72.3,91.8 			"/>
			<polygon class="st4" points="52,113.8 6.5,113.8 8.5,106.1 50,106.1 			"/>
		</g>
		<g>
			<linearGradient id="SVGID_5_" gradientUnits="userSpaceOnUse" x1="56.8713" y1="69.8555" x2="97.8744" y2="62.6255">
				<stop  offset="2.501441e-07" style="stop-color:#44C9D1"/>
				<stop  offset="8.836549e-02" style="stop-color:#36A7C6"/>
				<stop  offset="0.1898" style="stop-color:#2987BC"/>
				<stop  offset="0.3004" style="stop-color:#1E6CB4"/>
				<stop  offset="0.4214" style="stop-color:#1558AD"/>
				<stop  offset="0.5582" style="stop-color:#104AA8"/>
				<stop  offset="0.7241" style="stop-color:#0C42A6"/>
				<stop  offset="1" style="stop-color:#0B3FA5"/>
			</linearGradient>
			<circle class="st5" cx="77.4" cy="66.2" r="20.8"/>
			<linearGradient id="SVGID_6_" gradientUnits="userSpaceOnUse" x1="28.1418" y1="125.3664" x2="120.5352" y2="109.0749">
				<stop  offset="2.501441e-07" style="stop-color:#44C9D1"/>
				<stop  offset="8.836549e-02" style="stop-color:#36A7C6"/>
				<stop  offset="0.1898" style="stop-color:#2987BC"/>
				<stop  offset="0.3004" style="stop-color:#1E6CB4"/>
				<stop  offset="0.4214" style="stop-color:#1558AD"/>
				<stop  offset="0.5582" style="stop-color:#104AA8"/>
				<stop  offset="0.7241" style="stop-color:#0C42A6"/>
				<stop  offset="1" style="stop-color:#0B3FA5"/>
			</linearGradient>
			<path class="st6" d="M30.1,136.5c0-26.1,21.2-47.3,47.3-47.3s47.3,21.2,47.3,47.3H30.1z"/>
		</g>
	</g>
</g>
<g>
	<path class="st7" d="M117.5,41.7H80.8V5c0-2.8,2.2-5,5-5h31.7c2.8,0,5,2.2,5,5v31.7C122.5,39.4,120.3,41.7,117.5,41.7z"/>
	<g id="Group-Copy_6_">
		
			<linearGradient id="Combined-Shape-Copy-6_1_" gradientUnits="userSpaceOnUse" x1="1201.2484" y1="507.0144" x2="1201.2986" y2="507.0947" gradientTransform="matrix(212.3111 0 0 -191.6929 -254946.0938 97217.5078)">
			<stop  offset="0" style="stop-color:#1F92FF"/>
			<stop  offset="0.202" style="stop-color:#1B7FF1"/>
			<stop  offset="1" style="stop-color:#000395"/>
		</linearGradient>
		<path id="Combined-Shape-Copy-6_4_" class="st8" d="M103.6,10.8c0.4,0.1,0.7,0.1,1.2,0.3c2.7,0.7,5.4,3.3,3.1,2.8
			c-3.5-1.1-5.7,1-6.9,3.5c0,0.1-0.1,0.1-0.1,0.2c-1.3,3.7-2,10.1-6.7,9.2c-4.8-1.5-3.6-8.5-1.9-11.1c1.8-2.8,3.9-4.3,7-4.8
			C101,10.4,102.4,10.5,103.6,10.8L103.6,10.8z"/>
		
			<linearGradient id="Combined-Shape-Copy-7_1_" gradientUnits="userSpaceOnUse" x1="1212.8689" y1="505.0221" x2="1212.9337" y2="505.0961" gradientTransform="matrix(-212.3111 0 0 191.6929 257618.0938 -96792.1641)">
			<stop  offset="0" style="stop-color:#1F92FF"/>
			<stop  offset="0.202" style="stop-color:#1B7FF1"/>
			<stop  offset="1" style="stop-color:#000395"/>
		</linearGradient>
		<path id="Combined-Shape-Copy-7_6_" class="st9" d="M99.7,30.9c-0.4-0.1-0.7-0.1-1.2-0.3c-2.7-0.7-5.4-3.3-3.1-2.8
			c3.5,1.1,5.7-1,6.9-3.5c0-0.1,0.1-0.1,0.1-0.2c1.3-3.7,2-10.1,6.7-9.2c4.8,1.5,3.6,8.5,1.9,11.1c-1.8,2.8-3.9,4.3-7,4.8
			C102.3,31.2,100.9,31.2,99.7,30.9L99.7,30.9z"/>
	</g>
</g>
</svg>
