<?xml version="1.0" encoding="utf-8"?>
<!-- Generator: Adobe Illustrator 25.0.1, SVG Export Plug-In . SVG Version: 6.00 Build 0)  -->
<svg version="1.1" id="Layer_1" xmlns="http://www.w3.org/2000/svg" xmlns:xlink="http://www.w3.org/1999/xlink" x="0px" y="0px"
	 viewBox="0 0 130 130" style="enable-background:new 0 0 130 130;" xml:space="preserve">
<style type="text/css">
	.st0{fill:url(#SVGID_1_);}
	.st1{clip-path:url(#SVGID_3_);}
	.st2{fill:#44C9D1;}
	.st3{fill-rule:evenodd;clip-rule:evenodd;fill:#DCEEFF;}
	.st4{fill-rule:evenodd;clip-rule:evenodd;fill:url(#Combined-Shape-Copy-6_1_);}
	.st5{fill-rule:evenodd;clip-rule:evenodd;fill:url(#Combined-Shape-Copy-7_1_);}
	.st6{opacity:0.2;fill-rule:evenodd;clip-rule:evenodd;fill:#09325E;}
	.st7{opacity:0.4;fill-rule:evenodd;clip-rule:evenodd;fill:#09325E;}
	.st8{fill-rule:evenodd;clip-rule:evenodd;fill:#09325E;}
	.st9{fill:url(#SVGID_4_);}
	.st10{fill:url(#SVGID_5_);}
	.st11{fill:url(#SVGID_6_);}
	.st12{opacity:0.4;}
	.st13{fill:url(#SVGID_7_);}
	.st14{fill:url(#SVGID_8_);}
	.st15{fill:url(#SVGID_9_);}
	.st16{opacity:0.2;}
	.st17{fill:url(#SVGID_10_);}
	.st18{fill:url(#SVGID_11_);}
	.st19{fill:url(#SVGID_12_);}
	.st20{fill-rule:evenodd;clip-rule:evenodd;fill:#A9D0FC;}
	.st21{fill-rule:evenodd;clip-rule:evenodd;fill:#D9E8FC;}
</style>
<linearGradient id="SVGID_1_" gradientUnits="userSpaceOnUse" x1="-72.381" y1="117.8375" x2="148.205" y2="32.9967">
	<stop  offset="0" style="stop-color:#0B3FA5"/>
	<stop  offset="0.1333" style="stop-color:#0F48A8"/>
	<stop  offset="0.3508" style="stop-color:#1960B0"/>
	<stop  offset="0.6253" style="stop-color:#2988BC"/>
	<stop  offset="0.9433" style="stop-color:#40BECE"/>
	<stop  offset="1" style="stop-color:#44C9D1"/>
</linearGradient>
<path class="st0" d="M130,65c0,9.3-2,18.2-5.5,26.2C114.4,114,91.6,130,65,130c-35.9,0-65-29.1-65-65c0-14.4,4.7-27.6,12.5-38.4
	C24.4,10.5,43.5,0,65,0C100.9,0,130,29.1,130,65z"/>
<desc>Created with Sketch.</desc>
<desc>Created with Sketch.</desc>
<desc>Created with Sketch.</desc>
<desc>Created with Sketch.</desc>
<desc>Created with Sketch.</desc>
<desc>Created with Sketch.</desc>
<g>
	<defs>
		<path id="SVGID_2_" d="M130,65c0,9.3-2,18.2-5.5,26.2C114.4,114,91.6,130,65,130c-35.9,0-65-29.1-65-65c0-14.4,4.7-27.6,12.5-38.4
			C24.4,10.5,43.5,0,65,0C100.9,0,130,29.1,130,65z"/>
	</defs>
	<clipPath id="SVGID_3_">
		<use xlink:href="#SVGID_2_"  style="overflow:visible;"/>
	</clipPath>
	<g class="st1">
		<g>
			<path class="st2" d="M77.2,60v-88.2l-0.5,0.3v14.4L64.5-6.4v-14.4L64-20.5v14.4L51.7,1v-14.4l-0.5,0.3V1.3L38.9,8.4V-6l-0.5,0.3
				V8.6l-12.3,7.1V1.3l-0.5,0.3V16l-12.3,7.1V8.7L12.9,9v14.4L0.6,30.5V16.1l-0.5,0.3v88.2L77.2,60z M76.8,59.8l-12.3,7.1V52.8
				l12.3-7.1V59.8z M26.2,45.6l12.3-7.1v14.1l-12.3,7.1V45.6z M25.7,60l-12.3,7.1V52.9l12.3-7.1V60z M38.5,67.2l-12.3,7.1V60.2
				l12.3-7.1V67.2z M38.9,52.8l12.3-7.1v14.1L38.9,67V52.8z M38.9,38.2l12.3-7.1v14.1l-12.3,7.1V38.2z M51.7,30.8L64,23.7v14.1
				l-12.3,7.1V30.8z M64,38.4v14.1l-12.3,7.1V45.5L64,38.4z M64,53v14.1l-12.3,7.1V60.1L64,53z M51.2,74.5l-12.3,7.1V67.5l12.3-7.1
				V74.5z M38.5,81.9L26.2,89V74.9l12.3-7.1V81.9z M25.7,89.3l-12.3,7.1V82.2l12.3-7.1V89.3z M13.4,81.7V67.6l12.3-7.1v14.1
				L13.4,81.7z M12.9,82L0.6,89.1V75l12.3-7.1V82z M0.6,74.4V60.3l12.3-7.1v14.1L0.6,74.4z M0.6,59.8V45.7l12.3-7.1v14.1L0.6,59.8z
				 M13.4,38.3l12.3-7.1v14.1l-12.3,7.1V38.3z M26.2,30.9l12.3-7.1v14.1L26.2,45V30.9z M38.9,23.5l12.3-7.1v14.1l-12.3,7.1V23.5z
				 M51.7,16.2L64,9.1v14.1l-12.3,7.1V16.2z M64.5,8.8l12.3-7.1v14.1l-12.3,7.1V8.8z M76.8,16.4v14.1l-12.3,7.1V23.5L76.8,16.4z
				 M76.8,31v14.1l-12.3,7.1V38.1L76.8,31z M0.6,103.7V89.6l12.3-7.1v14.1L0.6,103.7z M12.9,23.9V38L0.6,45.1V31L12.9,23.9z
				 M25.7,16.5v14.1l-12.3,7.1V23.6L25.7,16.5z M38.5,9.2v14.1l-12.3,7.1V16.3L38.5,9.2z M51.2,1.8v14.1L38.9,23V8.9L51.2,1.8z
				 M64-5.6V8.5l-12.3,7.1V1.5L64-5.6z M76.8-13V1.2L64.5,8.3V-5.9L76.8-13z"/>
			<path class="st2" d="M0,104.5l76.4,44.1l0.5-0.3l-12.5-7.2l12.3-7.1l12.5,7.2l0.5-0.3l-12.5-7.2l12.3-7.1l12.5,7.2l0.5-0.3
				l-12.5-7.2l12.3-7.1l12.5,7.2l0.5-0.3l-12.5-7.2l12.3-7.1l12.5,7.2l0.5-0.3l-12.5-7.2l12.3-7.1l12.5,7.2l0.5-0.3l-12.5-7.2
				l12.3-7.1l12.5,7.2l0.5-0.3L77.1,60L0,104.5z M1,104.5l12.3-7.1l12.2,7.1l-12.3,7.1L1,104.5z M89.2,97l-12.3,7.1l-12.2-7.1
				L76.9,90L89.2,97z M77.4,89.7l12.3-7.1l12.2,7.1l-12.3,7.1L77.4,89.7z M51.9,89.7l12.3-7.1l12.2,7.1l-12.3,7.1L51.9,89.7z
				 M63.7,97.1l-12.3,7.1l-12.2-7.1L51.5,90L63.7,97.1z M76.4,104.4l-12.3,7.1l-12.2-7.1l12.3-7.1L76.4,104.4z M63.6,111.8
				l-12.3,7.1l-12.2-7.1l12.3-7.1L63.6,111.8z M38.6,111.5l-12.2-7.1l12.3-7.1l12.2,7.1L38.6,111.5z M25.9,104.2l-12.2-7.1L26,90
				l12.2,7.1L25.9,104.2z M26.5,89.8l12.3-7.1L51,89.7l-12.3,7.1L26.5,89.8z M39.2,82.4l12.3-7.1l12.2,7.1l-12.3,7.1L39.2,82.4z
				 M52,75l12.3-7.1L76.5,75l-12.3,7.1L52,75z M77,75.3l12.2,7.1l-12.3,7.1l-12.2-7.1L77,75.3z M77.5,75l12.3-7.1l12.2,7.1L89.7,82
				L77.5,75z M102.5,75.2l12.2,7.1l-12.3,7.1l-12.2-7.1L102.5,75.2z M115.2,82.5l12.2,7.1l-12.3,7.1l-12.2-7.1L115.2,82.5z
				 M114.6,97l-12.3,7.1L90.1,97l12.3-7.1L114.6,97z M101.8,104.3l-12.3,7.1l-12.2-7.1l12.3-7.1L101.8,104.3z M89.1,111.7l-12.3,7.1
				l-12.2-7.1l12.3-7.1L89.1,111.7z M76.3,119.1L64,126.2l-12.2-7.1l12.3-7.1L76.3,119.1z M63.6,126.5l-12.3,7.1L39,126.5l12.3-7.1
				L63.6,126.5z M38.6,126.2l-12.2-7.1l12.3-7.1l12.2,7.1L38.6,126.2z M25.9,118.9l-12.2-7.1l12.3-7.1l12.2,7.1L25.9,118.9z
				 M77.1,60.6l12.2,7.1L77,74.7l-12.2-7.1L77.1,60.6z M127.8,104L115.5,97l12.3-7.1l12.2,7.1L127.8,104z M115,111.4l-12.2-7.1
				l12.3-7.1l12.2,7.1L115,111.4z M102.2,118.8L90,111.7l12.3-7.1l12.2,7.1L102.2,118.8z M89.5,126.1l-12.2-7.1l12.3-7.1l12.2,7.1
				L89.5,126.1z M76.7,133.5l-12.2-7.1l12.3-7.1l12.2,7.1L76.7,133.5z M63.9,140.9l-12.2-7.1l12.3-7.1l12.2,7.1L63.9,140.9z"/>
		</g>
		<g>
			<path class="st3" d="M58,54L12.9,80V29.4c0-4.2,2.5-9,5.6-10.8L58-4.2c3.1-1.8,5.6,0.1,5.6,4.3v43.1C63.6,47.4,61.1,52.2,58,54z"
				/>
			<g id="Group-Copy_5_">
				
					<linearGradient id="Combined-Shape-Copy-6_1_" gradientUnits="userSpaceOnUse" x1="1201.006" y1="506.6839" x2="1201.0702" y2="506.7866" gradientTransform="matrix(183.8668 -106.1555 0 -221.3479 -220797.25 239697.6875)">
					<stop  offset="0" style="stop-color:#1F92FF"/>
					<stop  offset="0.202" style="stop-color:#1B7FF1"/>
					<stop  offset="1" style="stop-color:#000395"/>
				</linearGradient>
				<path id="Combined-Shape-Copy-6_6_" class="st4" d="M40.6,20.9c0.4-0.2,0.9-0.3,1.4-0.5c3.3-0.9,6.6,0.8,3.8,1.7
					c-4.2,1-7,5.5-8.4,9.7c0,0.1-0.1,0.2-0.1,0.3c-1.6,6.1-2.5,15.5-8.2,17.5c-5.8,1.2-4.4-9.3-2.4-14.1c2.2-5.2,4.7-8.8,8.5-11.7
					C37.4,22.3,39.2,21.4,40.6,20.9L40.6,20.9z"/>
				
					<linearGradient id="Combined-Shape-Copy-7_1_" gradientUnits="userSpaceOnUse" x1="1213.0835" y1="505.3356" x2="1213.1682" y2="505.4321" gradientTransform="matrix(-183.8668 106.1555 0 221.3479 223096.3438 -240607.4844)">
					<stop  offset="0" style="stop-color:#1F92FF"/>
					<stop  offset="0.202" style="stop-color:#1B7FF1"/>
					<stop  offset="1" style="stop-color:#000395"/>
				</linearGradient>
				<path id="Combined-Shape-Copy-7_5_" class="st5" d="M35.9,51.7c-0.4,0.2-0.9,0.3-1.4,0.5c-3.3,0.9-6.6-0.8-3.8-1.7
					c4.2-1,7-5.5,8.4-9.7c0-0.1,0.1-0.2,0.1-0.3c1.6-6.1,2.5-15.5,8.2-17.5c5.8-1.2,4.4,9.3,2.4,14.1c-2.2,5.2-4.7,8.8-8.5,11.7
					C39.1,50.3,37.3,51.2,35.9,51.7L35.9,51.7z"/>
			</g>
		</g>
		<g>
			<path class="st6" d="M93.3,136.2l52.5-30.3c1.1-0.7,1-1.8-0.3-2.6l-36.3-20.9c-1.3-0.8-3.3-0.8-4.4-0.2l-52.5,30.3
				c-1.1,0.7-1,1.8,0.3,2.6l36.3,20.9C90.2,136.8,92.2,136.9,93.3,136.2z"/>
			<path class="st7" d="M93.3,131.8l52.5-30.3c1.1-0.7,1-1.8-0.3-2.6L109.2,78c-1.3-0.8-3.3-0.8-4.4-0.2l-52.5,30.3
				c-1.1,0.7-1,1.8,0.3,2.6l36.3,20.9C90.2,132.4,92.2,132.5,93.3,131.8z"/>
			<path class="st8" d="M93.3,127.4l52.5-30.3c1.1-0.7,1-1.8-0.3-2.6l-36.3-20.9c-1.3-0.8-3.3-0.8-4.4-0.2l-52.5,30.3
				c-1.1,0.7-1,1.8,0.3,2.6l36.3,20.9C90.2,128,92.2,128,93.3,127.4z"/>
			<g>
				<g>
					<linearGradient id="SVGID_4_" gradientUnits="userSpaceOnUse" x1="50.1196" y1="77.3866" x2="68.1243" y2="77.3866">
						<stop  offset="0" style="stop-color:#00162D"/>
						<stop  offset="1" style="stop-color:#09325E"/>
					</linearGradient>
					<path class="st9" d="M53,73.2c-3.6,1.7-3.8,4.9-0.6,6.7l4.5,2.6l2.7-1.6l-4.5-2.6c-1.6-0.9-1.6-2.4,0-3.3
						c1.6-0.9,4.1-0.9,5.7,0l4.5,2.6l2.7-1.6L64,73.7C61.1,72,56.2,71.7,53,73.2z"/>
					<linearGradient id="SVGID_5_" gradientUnits="userSpaceOnUse" x1="58.6741" y1="82.2616" x2="76.6788" y2="82.2616">
						<stop  offset="0" style="stop-color:#00162D"/>
						<stop  offset="1" style="stop-color:#09325E"/>
					</linearGradient>
					<path class="st10" d="M74.4,79.7l-4.5-2.6l-2.7,1.6l4.5,2.6c1.6,0.9,1.6,2.4,0,3.3c-1.6,0.9-4.1,0.9-5.7,0L61.4,82l-2.7,1.6
						l4.1,2.4c2.9,1.7,7.8,2,11,0.5C77.4,84.7,77.6,81.6,74.4,79.7z"/>
				</g>
				<linearGradient id="SVGID_6_" gradientUnits="userSpaceOnUse" x1="57.806" y1="79.8241" x2="68.9924" y2="79.8241">
					<stop  offset="0" style="stop-color:#00162D"/>
					<stop  offset="1" style="stop-color:#09325E"/>
				</linearGradient>
				<path class="st11" d="M58.4,78.4l7.4,4.3c0.7,0.4,1.9,0.5,2.5,0.1l0.2-0.1c0.6-0.4,0.6-1-0.2-1.5L60.9,77
					c-0.7-0.4-1.9-0.5-2.5-0.1L58.2,77C57.6,77.3,57.7,78,58.4,78.4z"/>
			</g>
			<g class="st12">
				<g>
					<linearGradient id="SVGID_7_" gradientUnits="userSpaceOnUse" x1="50.1196" y1="79.0663" x2="68.1243" y2="79.0663">
						<stop  offset="0" style="stop-color:#00162D"/>
						<stop  offset="1" style="stop-color:#09325E"/>
					</linearGradient>
					<path class="st13" d="M53,74.9c-3.6,1.7-3.8,4.9-0.6,6.7l4.5,2.6l2.7-1.6L55.1,80c-1.6-0.9-1.6-2.4,0-3.3
						c1.6-0.9,4.1-0.9,5.7,0l4.5,2.6l2.7-1.6L64,75.4C61.1,73.7,56.2,73.3,53,74.9z"/>
					<linearGradient id="SVGID_8_" gradientUnits="userSpaceOnUse" x1="58.6741" y1="83.9413" x2="76.6788" y2="83.9413">
						<stop  offset="0" style="stop-color:#00162D"/>
						<stop  offset="1" style="stop-color:#09325E"/>
					</linearGradient>
					<path class="st14" d="M74.4,81.4l-4.5-2.6l-2.7,1.6l4.5,2.6c1.6,0.9,1.6,2.4,0,3.3c-1.6,0.9-4.1,0.9-5.7,0l-4.5-2.6l-2.7,1.6
						l4.1,2.4c2.9,1.7,7.8,2,11,0.5C77.4,86.4,77.6,83.3,74.4,81.4z"/>
				</g>
				<linearGradient id="SVGID_9_" gradientUnits="userSpaceOnUse" x1="57.806" y1="81.5038" x2="68.9924" y2="81.5038">
					<stop  offset="0" style="stop-color:#00162D"/>
					<stop  offset="1" style="stop-color:#09325E"/>
				</linearGradient>
				<path class="st15" d="M58.4,80.1l7.4,4.3c0.7,0.4,1.9,0.5,2.5,0.1l0.2-0.1c0.6-0.4,0.6-1-0.2-1.5l-7.4-4.3
					c-0.7-0.4-1.9-0.5-2.5-0.1l-0.2,0.1C57.6,79,57.7,79.7,58.4,80.1z"/>
			</g>
			<g class="st16">
				<g>
					<linearGradient id="SVGID_10_" gradientUnits="userSpaceOnUse" x1="50.1196" y1="80.2339" x2="68.1243" y2="80.2339">
						<stop  offset="0" style="stop-color:#00162D"/>
						<stop  offset="1" style="stop-color:#09325E"/>
					</linearGradient>
					<path class="st17" d="M53,76.1c-3.6,1.7-3.8,4.9-0.6,6.7l4.5,2.6l2.7-1.6l-4.5-2.6c-1.6-0.9-1.6-2.4,0-3.3
						c1.6-0.9,4.1-0.9,5.7,0l4.5,2.6l2.7-1.6L64,76.6C61.1,74.9,56.2,74.5,53,76.1z"/>
					<linearGradient id="SVGID_11_" gradientUnits="userSpaceOnUse" x1="58.6741" y1="85.1089" x2="76.6788" y2="85.1089">
						<stop  offset="0" style="stop-color:#00162D"/>
						<stop  offset="1" style="stop-color:#09325E"/>
					</linearGradient>
					<path class="st18" d="M74.4,82.6l-4.5-2.6l-2.7,1.6l4.5,2.6c1.6,0.9,1.6,2.4,0,3.3c-1.6,0.9-4.1,0.9-5.7,0l-4.5-2.6l-2.7,1.6
						l4.1,2.4c2.9,1.7,7.8,2,11,0.5C77.4,87.5,77.6,84.4,74.4,82.6z"/>
				</g>
				<linearGradient id="SVGID_12_" gradientUnits="userSpaceOnUse" x1="57.806" y1="82.6714" x2="68.9924" y2="82.6714">
					<stop  offset="0" style="stop-color:#00162D"/>
					<stop  offset="1" style="stop-color:#09325E"/>
				</linearGradient>
				<path class="st19" d="M58.4,81.3l7.4,4.3c0.7,0.4,1.9,0.5,2.5,0.1l0.2-0.1c0.6-0.4,0.6-1-0.2-1.5l-7.4-4.3
					c-0.7-0.4-1.9-0.5-2.5-0.1l-0.2,0.1C57.6,80.2,57.7,80.8,58.4,81.3z"/>
			</g>
			<polygon class="st20" points="77.6,107.7 115.6,85.8 106.7,80.6 68.7,102.6 			"/>
			<path class="st21" d="M86.5,111.1l30.1-17.4c0.9-0.5,0.8-1.4-0.2-2v0c-1-0.6-2.5-0.6-3.4-0.1l-30.1,17.4c-0.9,0.5-0.8,1.4,0.2,2
				v0C84.1,111.5,85.7,111.6,86.5,111.1z"/>
			<path class="st21" d="M92.3,114.4l21.1-12.2c0.9-0.5,0.8-1.4-0.2-2l0,0c-1-0.6-2.5-0.6-3.4-0.1l-21.1,12.2
				c-0.9,0.5-0.8,1.4,0.2,2h0C89.9,114.8,91.4,114.9,92.3,114.4z"/>
		</g>
	</g>
</g>
</svg>
