<?xml version="1.0" encoding="utf-8"?>
<!-- Generator: Adobe Illustrator 25.0.1, SVG Export Plug-In . SVG Version: 6.00 Build 0)  -->
<svg version="1.1" id="Layer_1" xmlns="http://www.w3.org/2000/svg" xmlns:xlink="http://www.w3.org/1999/xlink" x="0px" y="0px"
	 viewBox="0 0 130 130" style="enable-background:new 0 0 130 130;" xml:space="preserve">
<style type="text/css">
	.st0{fill:url(#SVGID_1_);}
	.st1{clip-path:url(#SVGID_3_);}
	.st2{opacity:0.2;fill:#09325E;}
	.st3{opacity:0.4;fill:#09325E;}
	.st4{fill:#09325E;}
	.st5{fill:#A5CBFA;}
	.st6{fill:#C8E2FF;}
	.st7{fill:#0B3FA5;}
</style>
<linearGradient id="SVGID_1_" gradientUnits="userSpaceOnUse" x1="-72.381" y1="117.8375" x2="148.205" y2="32.9967">
	<stop  offset="0" style="stop-color:#0B3FA5"/>
	<stop  offset="0.1333" style="stop-color:#0F48A8"/>
	<stop  offset="0.3508" style="stop-color:#1960B0"/>
	<stop  offset="0.6253" style="stop-color:#2988BC"/>
	<stop  offset="0.9433" style="stop-color:#40BECE"/>
	<stop  offset="1" style="stop-color:#44C9D1"/>
</linearGradient>
<path class="st0" d="M130,65c0,9.3-2,18.2-5.5,26.2C114.4,114,91.6,130,65,130c-35.9,0-65-29.1-65-65c0-14.4,4.7-27.6,12.5-38.4
	C24.4,10.5,43.5,0,65,0C100.9,0,130,29.1,130,65z"/>
<desc>Created with Sketch.</desc>
<desc>Created with Sketch.</desc>
<desc>Created with Sketch.</desc>
<desc>Created with Sketch.</desc>
<g>
	<defs>
		<path id="SVGID_2_" d="M130,65c0,9.3-2,18.2-5.5,26.2C114.4,114,91.6,130,65,130c-35.9,0-65-29.1-65-65c0-14.4,4.7-27.6,12.5-38.4
			C24.4,10.5,43.5,0,65,0C100.9,0,130,29.1,130,65z"/>
	</defs>
	<clipPath id="SVGID_3_">
		<use xlink:href="#SVGID_2_"  style="overflow:visible;"/>
	</clipPath>
	<g class="st1">
		<path class="st2" d="M124.8,116.3L35.3,64.6c-1.4-0.8-2.6-3-2.6-4.9V-7.8c0-1.9,1.1-2.7,2.6-1.9L124.8,42c1.4,0.8,2.6,3,2.6,4.9
			v67.5C127.4,116.2,126.2,117.1,124.8,116.3z"/>
		<path class="st3" d="M115.1,126.1L25.5,74.4c-1.4-0.8-2.6-3-2.6-4.9V2c0-1.9,1.1-2.7,2.6-1.9l89.5,51.7c1.4,0.8,2.6,3,2.6,4.9
			v67.5C117.6,126,116.5,126.9,115.1,126.1z"/>
		<path class="st4" d="M105.3,135.8L15.8,84.1c-1.4-0.8-2.6-3-2.6-4.9V11.8c0-1.9,1.1-2.7,2.6-1.9l89.5,51.7c1.4,0.8,2.6,3,2.6,4.9
			v67.5C107.8,135.8,106.7,136.6,105.3,135.8z"/>
		<g>
			<g>
				<polygon class="st5" points="8.6,16 2.6,12.6 2.6,5.7 8.6,9.2 				"/>
				<polygon class="st5" points="8.6,76.6 2.6,73.1 2.6,66.3 8.6,69.7 				"/>
			</g>
			<g>
				<polygon class="st5" points="19.6,22.4 13.6,18.9 13.6,12 19.6,15.5 				"/>
				<polygon class="st5" points="19.6,82.9 13.6,79.5 13.6,72.6 19.6,76.1 				"/>
			</g>
			<g>
				<polygon class="st5" points="30.6,28.7 24.6,25.2 24.6,18.4 30.6,21.8 				"/>
				<polygon class="st5" points="30.6,89.3 24.6,85.8 24.6,79 30.6,82.4 				"/>
			</g>
			<g>
				<polygon class="st5" points="41.5,35 35.6,31.6 35.6,24.7 41.5,28.2 				"/>
				<polygon class="st5" points="41.5,95.6 35.6,92.2 35.6,85.3 41.5,88.7 				"/>
			</g>
			<g>
				<polygon class="st5" points="52.5,41.4 46.5,37.9 46.5,31.1 52.5,34.5 				"/>
				<polygon class="st5" points="52.5,101.9 46.5,98.5 46.5,91.6 52.5,95.1 				"/>
			</g>
			<g>
				<polygon class="st5" points="63.5,47.7 57.5,44.3 57.5,37.4 63.5,40.9 				"/>
				<polygon class="st5" points="63.5,108.3 57.5,104.8 57.5,98 63.5,101.4 				"/>
			</g>
			<g>
				<polygon class="st5" points="74.5,54.1 68.5,50.6 68.5,43.7 74.5,47.2 				"/>
				<polygon class="st5" points="74.5,114.6 68.5,111.2 68.5,104.3 74.5,107.8 				"/>
			</g>
			<g>
				<polygon class="st5" points="85.5,60.4 79.5,56.9 79.5,50.1 85.5,53.5 				"/>
				<polygon class="st5" points="85.5,121 79.5,117.5 79.5,110.7 85.5,114.1 				"/>
			</g>
			<g>
				<polygon class="st5" points="96.5,66.7 90.5,63.3 90.5,56.4 96.5,59.9 				"/>
				<polygon class="st5" points="96.5,127.3 90.5,123.9 90.5,117 96.5,120.5 				"/>
			</g>
			<g>
				<polygon class="st5" points="107.4,73.1 101.5,69.6 101.5,62.8 107.4,66.2 				"/>
				<polygon class="st5" points="107.4,133.6 101.5,130.2 101.5,123.3 107.4,126.8 				"/>
			</g>
			<g>
				<polygon class="st5" points="118.4,79.4 112.4,76 112.4,69.1 118.4,72.6 				"/>
				<polygon class="st5" points="118.4,140 112.4,136.5 112.4,129.7 118.4,133.1 				"/>
			</g>
		</g>
		<g>
			
				<ellipse id="Oval_5_" transform="matrix(0.8629 -0.5054 0.5054 0.8629 -28.5191 40.578)" class="st6" cx="60.5" cy="72.8" rx="13.5" ry="23.4"/>
			<path id="Path_18_" class="st7" d="M55.5,59.7c0-0.5,0.3-0.5,0.6,0l13.5,18c0.4,0.5,0.4,0.9,0,1L56.2,81
				c-0.4,0.1-0.6-0.3-0.6-0.8L55.5,59.7L55.5,59.7z"/>
		</g>
	</g>
</g>
</svg>
